<svg aria-hidden="true" style="width:0;height:0;position:absolute;overflow:hidden" xmlns="http://www.w3.org/2000/svg"><defs><symbol id="icon-telegram" viewBox="0 0 32 32"><path d="M16 0c8.837 0 16 7.163 16 16s-7.163 16-16 16S0 24.837 0 16 7.163 0 16 0zm7.106 9.6c-.61.011-1.545.332-6.045 2.18-1.576.647-4.727 1.987-9.451 4.019-.767.301-1.169.596-1.206.884-.07.553.736.725 1.751 1.051.827.266 1.941.576 2.519.589.525.011 1.111-.202 1.758-.641 4.414-2.942 6.693-4.429 6.836-4.461.101-.023.241-.051.336.032s.085.241.075.283c-.08.338-4.227 4.061-4.466 4.306l-.114.115c-.879.869-1.768 1.436-.235 2.433 1.385.901 2.19 1.475 3.617 2.398.912.59 1.626 1.289 2.567 1.204.433-.039.88-.441 1.108-1.64.537-2.834 1.592-8.973 1.836-11.503.021-.222-.006-.505-.027-.63s-.067-.302-.231-.433c-.194-.156-.494-.188-.628-.186z"/></symbol><symbol id="icon-facebook" viewBox="0 0 32 32"><path d="M16 .64C7.517.64.64 7.517.64 16S7.517 31.36 16 31.36 31.36 24.483 31.36 16 24.483.64 16 .64zm3.64 10.616h-2.312c-.272 0-.576.36-.576.84v1.664h2.888l-.44 2.376h-2.448v7.136h-2.72v-7.136h-2.48V13.76h2.48v-1.4c0-2 1.384-3.632 3.296-3.632h2.312v2.528z"/></symbol><symbol id="icon-twitter" viewBox="0 0 32 32"><path d="M16 .64C7.517.64.64 7.517.64 16S7.517 31.36 16 31.36 31.36 24.483 31.36 16 24.483.64 16 .64zm6.248 12.584.008.392c0 4-3.04 8.608-8.608 8.608a8.606 8.606 0 0 1-4.64-1.36 6.03 6.03 0 0 0 4.493-1.266l-.012.01a3.034 3.034 0 0 1-2.818-2.075l-.006-.021c.456.08.92.064 1.36-.056a3.03 3.03 0 0 1-2.424-2.96v-.04c.408.224.88.36 1.376.376a3.026 3.026 0 0 1-.929-4.054l-.008.014a8.592 8.592 0 0 0 6.219 3.159l.021.001a3.024 3.024 0 0 1 5.143-2.754l.001.001a6.083 6.083 0 0 0 1.947-.751l-.027.015a3.057 3.057 0 0 1-1.322 1.672l-.014.008a6.069 6.069 0 0 0 1.782-.495l-.038.015a6.203 6.203 0 0 1-1.494 1.556l-.018.012z"/></symbol><symbol id="icon-instagram" viewBox="0 0 32 32"><path d="M20.8 16v.07a4.8 4.8 0 1 1-9.516-.9l-.005.03h-1.68v6.4a.8.8 0 0 0 .8.8h11.2a.8.8 0 0 0 .8-.8v-6.4h-1.68c.048.256.08.528.08.8zM16 19.2a3.2 3.2 0 0 0 0-6.4 3.2 3.2 0 0 0 0 6.4zm3.84-6.56h1.92a.48.48 0 0 0 .48-.48v-1.92a.48.48 0 0 0-.48-.48h-1.92a.48.48 0 0 0-.48.48v1.92c0 .264.216.48.48.48zM16 .64C7.517.64.64 7.517.64 16S7.517 31.36 16 31.36 31.36 24.483 31.36 16 24.483.64 16 .64zm8 21.584C24 23.2 23.2 24 22.224 24H9.776C8.8 24 8 23.2 8 22.224V9.776C8 8.8 8.8 8 9.776 8h12.448C23.2 8 24 8.8 24 9.776v12.448z"/></symbol><symbol id="icon-youtube" viewBox="0 0 32 32"><path d="m18.56 15.736-3.592-1.68c-.312-.144-.568.016-.568.368v3.152c0 .352.256.512.568.368l3.6-1.68c.312-.144.312-.384 0-.528zM16 .64C7.517.64.64 7.517.64 16S7.517 31.36 16 31.36 31.36 24.483 31.36 16 24.483.64 16 .64zm0 21.6c-7.864 0-8-.712-8-6.24s.136-6.24 8-6.24 8 .712 8 6.24-.136 6.24-8 6.24z"/></symbol><symbol id="icon-close" viewBox="0 0 32 32"><path d="M23.736 10.304 22.232 8.8l-5.968 5.96-5.96-5.96L8.8 10.304l5.96 5.96L8.8 22.24l1.504 1.504 5.96-5.968 5.968 5.968 1.504-1.504-5.968-5.968 5.968-5.96z"/></symbol></defs></svg>